<?xml version="1.0" standalone="no"?><svg xmlns="http://www.w3.org/2000/svg" viewBox="0 0 1440 320"><path fill="#cbb100" fill-opacity="1" d="M0,224L26.7,197.3C53.3,171,107,117,160,112C213.3,107,267,149,320,186.7C373.3,224,427,256,480,240C533.3,224,587,160,640,144C693.3,128,747,160,800,170.7C853.3,181,907,171,960,144C1013.3,117,1067,75,1120,96C1173.3,117,1227,203,1280,208C1333.3,213,1387,139,1413,101.3L1440,64L1440,320L1413.3,320C1386.7,320,1333,320,1280,320C1226.7,320,1173,320,1120,320C1066.7,320,1013,320,960,320C906.7,320,853,320,800,320C746.7,320,693,320,640,320C586.7,320,533,320,480,320C426.7,320,373,320,320,320C266.7,320,213,320,160,320C106.7,320,53,320,27,320L0,320Z"></path></svg>