<svg width="40" height="49" viewBox="0 0 40 49" fill="none" xmlns="http://www.w3.org/2000/svg">
<mask id="path-1-inside-1_369_305" fill="white">
<path d="M23.3441 17.8426C23.3363 19.0437 24.323 20.0104 25.5463 20.0026C26.7719 19.9948 27.7697 19.0137 27.7785 17.8126C27.7874 16.6115 26.8019 15.6448 25.5763 15.6526C24.353 15.6604 23.353 16.6415 23.3441 17.8426Z"/>
<path d="M12.2212 17.8312C12.2135 19.0379 13.2046 20.0101 14.4335 20.0012C15.6646 19.9934 16.6679 19.0079 16.6757 17.8012C16.6835 16.5945 15.6946 15.6223 14.4635 15.6312C13.2346 15.639 12.229 16.6234 12.2212 17.8312Z"/>
<path d="M39.5044 24.6303C39.1944 24.4236 38.8022 24.3881 38.46 24.5303L37.5833 24.8981L36.6656 1.06807C36.6444 0.532513 36.2444 0.0869578 35.7122 0.0114022C35.1811 -0.0641533 34.6711 0.250291 34.5011 0.75918C33.6722 3.24696 32.1867 4.24473 29.8989 5.12807C29.3544 5.34029 28.7567 5.32696 28.2556 5.09362C23.2411 2.76251 16.76 2.76251 11.7433 5.09362C11.2444 5.32696 10.6456 5.33918 10.1 5.12807C7.81222 4.24362 6.32667 3.24585 5.49778 0.75918C5.32889 0.251402 4.82111 -0.0652644 4.28667 0.0114022C3.75444 0.0880689 3.35444 0.533624 3.33333 1.07029L2.45111 24.9125L1.54111 24.5303C1.19778 24.3881 0.805556 24.4236 0.496667 24.6303C0.185556 24.837 0 25.1836 0 25.5558C0 41.257 5.45222 48.8892 16.6667 48.8892H23.3333C34.5478 48.8892 40 41.257 40 25.5558C40 25.1836 39.8144 24.837 39.5044 24.6303ZM2.24444 27.2358L7.79 29.5614H7.79111C10.6733 30.7647 12.6978 33.0458 13.2078 35.6658C13.8322 38.8192 14.6544 43.0614 15.2211 46.0892L15.3211 46.6214C6.76444 46.0481 2.57778 39.837 2.24444 27.2358ZM22.5956 45.6814L22.4111 46.667H17.5889L17.4044 45.6814C16.8367 42.647 16.0122 38.3958 15.3878 35.2392C14.7378 31.8914 12.2167 29.0036 8.64778 27.5125L4.64222 25.8325L5.41778 4.85807C6.55333 5.99918 7.92333 6.66918 9.3 7.20029C10.4044 7.62807 11.6367 7.59473 12.68 7.10807C17.1267 5.04251 22.8733 5.04251 27.3189 7.10807C28.3633 7.59473 29.5967 7.62807 30.7 7.20029C32.0778 6.66807 33.45 5.99807 34.5867 4.85251L35.3933 25.8158L31.3522 27.5114C27.7822 29.0025 25.2622 31.8903 24.6122 35.2347C23.9878 38.3958 23.1633 42.6458 22.5956 45.6814ZM24.68 46.6225L24.78 46.0903C25.3467 43.0614 26.1689 38.8203 26.7933 35.6625C27.3022 33.047 29.3267 30.7658 32.2089 29.5625H32.21L37.7556 27.237C37.4222 39.837 33.2356 46.0481 24.68 46.6225Z"/>
<path d="M33.0881 9.30482C32.7025 8.82482 32.0025 8.75038 31.5258 9.13593C29.9425 10.4104 27.8225 11.1126 25.5558 11.1126C23.2381 11.1126 21.1958 12.3026 20.0003 14.1015C18.8047 12.3015 16.7625 11.1126 14.4447 11.1126C12.1781 11.1126 10.0581 10.4104 8.47472 9.13593C7.99694 8.75038 7.29694 8.82593 6.9125 9.30482C6.52694 9.7826 6.60361 10.4826 7.08139 10.867C8.00916 11.6137 9.08139 12.197 10.2403 12.6115C8.73916 13.8348 7.77805 15.6959 7.77805 17.7793C7.77805 21.4559 10.7681 24.4459 14.4447 24.4459C14.9947 24.4459 15.5269 24.3715 16.0381 24.2448C16.0303 24.247 16.0225 24.2515 16.0136 24.2526L19.2136 27.4526C19.4314 27.6704 19.7158 27.7793 20.0003 27.7793C20.2847 27.7793 20.5692 27.6704 20.7858 27.4537L23.9858 24.2537C23.9781 24.2515 23.9703 24.247 23.9614 24.2459C24.4736 24.3715 25.0058 24.4459 25.5558 24.4459C29.2325 24.4459 32.2225 21.4559 32.2225 17.7793C32.2225 15.6959 31.2614 13.8348 29.7603 12.6115C30.9192 12.1959 31.9914 11.6137 32.9192 10.867C33.3969 10.4826 33.4725 9.7826 33.0881 9.30482ZM14.4447 22.2237C11.9936 22.2237 10.0003 20.2304 10.0003 17.7793C10.0003 15.3282 11.9936 13.3348 14.4447 13.3348C16.8958 13.3348 18.8892 15.3282 18.8892 17.7793C18.8892 20.2304 16.8958 22.2237 14.4447 22.2237ZM20.0003 25.097L18.1925 23.2893C18.9069 22.8015 19.5214 22.1782 20.0003 21.457C20.4792 22.1782 21.0936 22.8015 21.8081 23.2893L20.0003 25.097ZM30.0003 17.7793C30.0003 20.2304 28.0069 22.2237 25.5558 22.2237C23.1047 22.2237 21.1114 20.2304 21.1114 17.7793C21.1114 15.3282 23.1047 13.3348 25.5558 13.3348C28.0069 13.3348 30.0003 15.3282 30.0003 17.7793Z"/>
<path d="M22.2217 35.554C22.8354 35.554 23.3328 35.0566 23.3328 34.4429C23.3328 33.8293 22.8354 33.3318 22.2217 33.3318C21.6081 33.3318 21.1106 33.8293 21.1106 34.4429C21.1106 35.0566 21.6081 35.554 22.2217 35.554Z"/>
<path d="M19.999 40.0026C20.6126 40.0026 21.1101 39.5051 21.1101 38.8914C21.1101 38.2778 20.6126 37.7803 19.999 37.7803C19.3853 37.7803 18.8879 38.2778 18.8879 38.8914C18.8879 39.5051 19.3853 40.0026 19.999 40.0026Z"/>
<path d="M17.7793 35.554C18.393 35.554 18.8904 35.0566 18.8904 34.4429C18.8904 33.8293 18.393 33.3318 17.7793 33.3318C17.1657 33.3318 16.6682 33.8293 16.6682 34.4429C16.6682 35.0566 17.1657 35.554 17.7793 35.554Z"/>
</mask>
<path d="M23.3441 17.8426C23.3363 19.0437 24.323 20.0104 25.5463 20.0026C26.7719 19.9948 27.7697 19.0137 27.7785 17.8126C27.7874 16.6115 26.8019 15.6448 25.5763 15.6526C24.353 15.6604 23.353 16.6415 23.3441 17.8426Z" fill="#C500A5"/>
<path d="M12.2212 17.8312C12.2135 19.0379 13.2046 20.0101 14.4335 20.0012C15.6646 19.9934 16.6679 19.0079 16.6757 17.8012C16.6835 16.5945 15.6946 15.6223 14.4635 15.6312C13.2346 15.639 12.229 16.6234 12.2212 17.8312Z" fill="#C500A5"/>
<path d="M39.5044 24.6303C39.1944 24.4236 38.8022 24.3881 38.46 24.5303L37.5833 24.8981L36.6656 1.06807C36.6444 0.532513 36.2444 0.0869578 35.7122 0.0114022C35.1811 -0.0641533 34.6711 0.250291 34.5011 0.75918C33.6722 3.24696 32.1867 4.24473 29.8989 5.12807C29.3544 5.34029 28.7567 5.32696 28.2556 5.09362C23.2411 2.76251 16.76 2.76251 11.7433 5.09362C11.2444 5.32696 10.6456 5.33918 10.1 5.12807C7.81222 4.24362 6.32667 3.24585 5.49778 0.75918C5.32889 0.251402 4.82111 -0.0652644 4.28667 0.0114022C3.75444 0.0880689 3.35444 0.533624 3.33333 1.07029L2.45111 24.9125L1.54111 24.5303C1.19778 24.3881 0.805556 24.4236 0.496667 24.6303C0.185556 24.837 0 25.1836 0 25.5558C0 41.257 5.45222 48.8892 16.6667 48.8892H23.3333C34.5478 48.8892 40 41.257 40 25.5558C40 25.1836 39.8144 24.837 39.5044 24.6303ZM2.24444 27.2358L7.79 29.5614H7.79111C10.6733 30.7647 12.6978 33.0458 13.2078 35.6658C13.8322 38.8192 14.6544 43.0614 15.2211 46.0892L15.3211 46.6214C6.76444 46.0481 2.57778 39.837 2.24444 27.2358ZM22.5956 45.6814L22.4111 46.667H17.5889L17.4044 45.6814C16.8367 42.647 16.0122 38.3958 15.3878 35.2392C14.7378 31.8914 12.2167 29.0036 8.64778 27.5125L4.64222 25.8325L5.41778 4.85807C6.55333 5.99918 7.92333 6.66918 9.3 7.20029C10.4044 7.62807 11.6367 7.59473 12.68 7.10807C17.1267 5.04251 22.8733 5.04251 27.3189 7.10807C28.3633 7.59473 29.5967 7.62807 30.7 7.20029C32.0778 6.66807 33.45 5.99807 34.5867 4.85251L35.3933 25.8158L31.3522 27.5114C27.7822 29.0025 25.2622 31.8903 24.6122 35.2347C23.9878 38.3958 23.1633 42.6458 22.5956 45.6814ZM24.68 46.6225L24.78 46.0903C25.3467 43.0614 26.1689 38.8203 26.7933 35.6625C27.3022 33.047 29.3267 30.7658 32.2089 29.5625H32.21L37.7556 27.237C37.4222 39.837 33.2356 46.0481 24.68 46.6225Z" fill="#C500A5"/>
<path d="M33.0881 9.30482C32.7025 8.82482 32.0025 8.75038 31.5258 9.13593C29.9425 10.4104 27.8225 11.1126 25.5558 11.1126C23.2381 11.1126 21.1958 12.3026 20.0003 14.1015C18.8047 12.3015 16.7625 11.1126 14.4447 11.1126C12.1781 11.1126 10.0581 10.4104 8.47472 9.13593C7.99694 8.75038 7.29694 8.82593 6.9125 9.30482C6.52694 9.7826 6.60361 10.4826 7.08139 10.867C8.00916 11.6137 9.08139 12.197 10.2403 12.6115C8.73916 13.8348 7.77805 15.6959 7.77805 17.7793C7.77805 21.4559 10.7681 24.4459 14.4447 24.4459C14.9947 24.4459 15.5269 24.3715 16.0381 24.2448C16.0303 24.247 16.0225 24.2515 16.0136 24.2526L19.2136 27.4526C19.4314 27.6704 19.7158 27.7793 20.0003 27.7793C20.2847 27.7793 20.5692 27.6704 20.7858 27.4537L23.9858 24.2537C23.9781 24.2515 23.9703 24.247 23.9614 24.2459C24.4736 24.3715 25.0058 24.4459 25.5558 24.4459C29.2325 24.4459 32.2225 21.4559 32.2225 17.7793C32.2225 15.6959 31.2614 13.8348 29.7603 12.6115C30.9192 12.1959 31.9914 11.6137 32.9192 10.867C33.3969 10.4826 33.4725 9.7826 33.0881 9.30482ZM14.4447 22.2237C11.9936 22.2237 10.0003 20.2304 10.0003 17.7793C10.0003 15.3282 11.9936 13.3348 14.4447 13.3348C16.8958 13.3348 18.8892 15.3282 18.8892 17.7793C18.8892 20.2304 16.8958 22.2237 14.4447 22.2237ZM20.0003 25.097L18.1925 23.2893C18.9069 22.8015 19.5214 22.1782 20.0003 21.457C20.4792 22.1782 21.0936 22.8015 21.8081 23.2893L20.0003 25.097ZM30.0003 17.7793C30.0003 20.2304 28.0069 22.2237 25.5558 22.2237C23.1047 22.2237 21.1114 20.2304 21.1114 17.7793C21.1114 15.3282 23.1047 13.3348 25.5558 13.3348C28.0069 13.3348 30.0003 15.3282 30.0003 17.7793Z" fill="#C500A5"/>
<path d="M22.2217 35.554C22.8354 35.554 23.3328 35.0566 23.3328 34.4429C23.3328 33.8293 22.8354 33.3318 22.2217 33.3318C21.6081 33.3318 21.1106 33.8293 21.1106 34.4429C21.1106 35.0566 21.6081 35.554 22.2217 35.554Z" fill="#C500A5"/>
<path d="M19.999 40.0026C20.6126 40.0026 21.1101 39.5051 21.1101 38.8914C21.1101 38.2778 20.6126 37.7803 19.999 37.7803C19.3853 37.7803 18.8879 38.2778 18.8879 38.8914C18.8879 39.5051 19.3853 40.0026 19.999 40.0026Z" fill="#C500A5"/>
<path d="M17.7793 35.554C18.393 35.554 18.8904 35.0566 18.8904 34.4429C18.8904 33.8293 18.393 33.3318 17.7793 33.3318C17.1657 33.3318 16.6682 33.8293 16.6682 34.4429C16.6682 35.0566 17.1657 35.554 17.7793 35.554Z" fill="#C500A5"/>
<path d="M23.3441 17.8426C23.3363 19.0437 24.323 20.0104 25.5463 20.0026C26.7719 19.9948 27.7697 19.0137 27.7785 17.8126C27.7874 16.6115 26.8019 15.6448 25.5763 15.6526C24.353 15.6604 23.353 16.6415 23.3441 17.8426Z" stroke="#C500A5" stroke-width="8" mask="url(#path-1-inside-1_369_305)"/>
<path d="M12.2212 17.8312C12.2135 19.0379 13.2046 20.0101 14.4335 20.0012C15.6646 19.9934 16.6679 19.0079 16.6757 17.8012C16.6835 16.5945 15.6946 15.6223 14.4635 15.6312C13.2346 15.639 12.229 16.6234 12.2212 17.8312Z" stroke="#C500A5" stroke-width="8" mask="url(#path-1-inside-1_369_305)"/>
<path d="M39.5044 24.6303C39.1944 24.4236 38.8022 24.3881 38.46 24.5303L37.5833 24.8981L36.6656 1.06807C36.6444 0.532513 36.2444 0.0869578 35.7122 0.0114022C35.1811 -0.0641533 34.6711 0.250291 34.5011 0.75918C33.6722 3.24696 32.1867 4.24473 29.8989 5.12807C29.3544 5.34029 28.7567 5.32696 28.2556 5.09362C23.2411 2.76251 16.76 2.76251 11.7433 5.09362C11.2444 5.32696 10.6456 5.33918 10.1 5.12807C7.81222 4.24362 6.32667 3.24585 5.49778 0.75918C5.32889 0.251402 4.82111 -0.0652644 4.28667 0.0114022C3.75444 0.0880689 3.35444 0.533624 3.33333 1.07029L2.45111 24.9125L1.54111 24.5303C1.19778 24.3881 0.805556 24.4236 0.496667 24.6303C0.185556 24.837 0 25.1836 0 25.5558C0 41.257 5.45222 48.8892 16.6667 48.8892H23.3333C34.5478 48.8892 40 41.257 40 25.5558C40 25.1836 39.8144 24.837 39.5044 24.6303ZM2.24444 27.2358L7.79 29.5614H7.79111C10.6733 30.7647 12.6978 33.0458 13.2078 35.6658C13.8322 38.8192 14.6544 43.0614 15.2211 46.0892L15.3211 46.6214C6.76444 46.0481 2.57778 39.837 2.24444 27.2358ZM22.5956 45.6814L22.4111 46.667H17.5889L17.4044 45.6814C16.8367 42.647 16.0122 38.3958 15.3878 35.2392C14.7378 31.8914 12.2167 29.0036 8.64778 27.5125L4.64222 25.8325L5.41778 4.85807C6.55333 5.99918 7.92333 6.66918 9.3 7.20029C10.4044 7.62807 11.6367 7.59473 12.68 7.10807C17.1267 5.04251 22.8733 5.04251 27.3189 7.10807C28.3633 7.59473 29.5967 7.62807 30.7 7.20029C32.0778 6.66807 33.45 5.99807 34.5867 4.85251L35.3933 25.8158L31.3522 27.5114C27.7822 29.0025 25.2622 31.8903 24.6122 35.2347C23.9878 38.3958 23.1633 42.6458 22.5956 45.6814ZM24.68 46.6225L24.78 46.0903C25.3467 43.0614 26.1689 38.8203 26.7933 35.6625C27.3022 33.047 29.3267 30.7658 32.2089 29.5625H32.21L37.7556 27.237C37.4222 39.837 33.2356 46.0481 24.68 46.6225Z" stroke="#C500A5" stroke-width="8" mask="url(#path-1-inside-1_369_305)"/>
<path d="M33.0881 9.30482C32.7025 8.82482 32.0025 8.75038 31.5258 9.13593C29.9425 10.4104 27.8225 11.1126 25.5558 11.1126C23.2381 11.1126 21.1958 12.3026 20.0003 14.1015C18.8047 12.3015 16.7625 11.1126 14.4447 11.1126C12.1781 11.1126 10.0581 10.4104 8.47472 9.13593C7.99694 8.75038 7.29694 8.82593 6.9125 9.30482C6.52694 9.7826 6.60361 10.4826 7.08139 10.867C8.00916 11.6137 9.08139 12.197 10.2403 12.6115C8.73916 13.8348 7.77805 15.6959 7.77805 17.7793C7.77805 21.4559 10.7681 24.4459 14.4447 24.4459C14.9947 24.4459 15.5269 24.3715 16.0381 24.2448C16.0303 24.247 16.0225 24.2515 16.0136 24.2526L19.2136 27.4526C19.4314 27.6704 19.7158 27.7793 20.0003 27.7793C20.2847 27.7793 20.5692 27.6704 20.7858 27.4537L23.9858 24.2537C23.9781 24.2515 23.9703 24.247 23.9614 24.2459C24.4736 24.3715 25.0058 24.4459 25.5558 24.4459C29.2325 24.4459 32.2225 21.4559 32.2225 17.7793C32.2225 15.6959 31.2614 13.8348 29.7603 12.6115C30.9192 12.1959 31.9914 11.6137 32.9192 10.867C33.3969 10.4826 33.4725 9.7826 33.0881 9.30482ZM14.4447 22.2237C11.9936 22.2237 10.0003 20.2304 10.0003 17.7793C10.0003 15.3282 11.9936 13.3348 14.4447 13.3348C16.8958 13.3348 18.8892 15.3282 18.8892 17.7793C18.8892 20.2304 16.8958 22.2237 14.4447 22.2237ZM20.0003 25.097L18.1925 23.2893C18.9069 22.8015 19.5214 22.1782 20.0003 21.457C20.4792 22.1782 21.0936 22.8015 21.8081 23.2893L20.0003 25.097ZM30.0003 17.7793C30.0003 20.2304 28.0069 22.2237 25.5558 22.2237C23.1047 22.2237 21.1114 20.2304 21.1114 17.7793C21.1114 15.3282 23.1047 13.3348 25.5558 13.3348C28.0069 13.3348 30.0003 15.3282 30.0003 17.7793Z" stroke="#C500A5" stroke-width="8" mask="url(#path-1-inside-1_369_305)"/>
<path d="M22.2217 35.554C22.8354 35.554 23.3328 35.0566 23.3328 34.4429C23.3328 33.8293 22.8354 33.3318 22.2217 33.3318C21.6081 33.3318 21.1106 33.8293 21.1106 34.4429C21.1106 35.0566 21.6081 35.554 22.2217 35.554Z" stroke="#C500A5" stroke-width="8" mask="url(#path-1-inside-1_369_305)"/>
<path d="M19.999 40.0026C20.6126 40.0026 21.1101 39.5051 21.1101 38.8914C21.1101 38.2778 20.6126 37.7803 19.999 37.7803C19.3853 37.7803 18.8879 38.2778 18.8879 38.8914C18.8879 39.5051 19.3853 40.0026 19.999 40.0026Z" stroke="#C500A5" stroke-width="8" mask="url(#path-1-inside-1_369_305)"/>
<path d="M17.7793 35.554C18.393 35.554 18.8904 35.0566 18.8904 34.4429C18.8904 33.8293 18.393 33.3318 17.7793 33.3318C17.1657 33.3318 16.6682 33.8293 16.6682 34.4429C16.6682 35.0566 17.1657 35.554 17.7793 35.554Z" stroke="#C500A5" stroke-width="8" mask="url(#path-1-inside-1_369_305)"/>
</svg>
